<svg width="40" height="40" viewBox="0 0 40 40" fill="none" xmlns="http://www.w3.org/2000/svg">
<path d="M31.2798 0.947486C29.966 0.413508 28.5604 0.568739 27.1094 1.4065C24.6513 2.82565 22.4395 6.32239 21.1914 10.7619C20.723 12.3855 20.4355 14.0558 20.334 15.7425L17.0368 10.0317C16.8985 9.79215 16.6707 9.61737 16.4036 9.54578C16.1364 9.4742 15.8518 9.51167 15.6122 9.64996C15.3727 9.78825 15.1979 10.016 15.1263 10.2832C15.0548 10.5503 15.0922 10.835 15.2305 11.0745L18.5277 16.7854C17.0193 16.0288 15.432 15.4409 13.7947 15.0324C9.32889 13.8918 5.19319 14.0598 2.73514 15.479C1.27657 16.3211 0.439349 17.4607 0.244893 18.8655C0.0303917 20.4163 0.621703 22.1983 2.05291 24.3122C3.29618 26.1493 4.97864 27.9475 6.30474 29.3093C9.40005 32.4875 12.299 32.4716 14.1891 31.9181C14.1527 32.8768 14.3055 33.8332 14.6388 34.7327C14.972 35.6323 15.4791 36.4575 16.1313 37.161C16.7834 37.8646 17.5677 38.4329 18.4394 38.8333C19.3112 39.2338 20.2532 39.4586 21.2118 39.495C22.1705 39.5314 23.1269 39.3786 24.0264 39.0454C24.926 38.7122 25.7512 38.205 26.4547 37.5529C27.1583 36.9008 27.7266 36.1164 28.127 35.2447C28.5275 34.373 28.7523 33.4309 28.7887 32.4723C30.5022 33.3769 32.5049 33.5637 34.3561 32.9917C36.2074 32.4197 37.7556 31.1357 38.6602 29.4222C39.5648 27.7087 39.7516 25.706 39.1796 23.8548C38.6076 22.0035 37.3236 20.4553 35.6101 19.5507C37.0373 18.1989 38.4977 15.688 37.293 11.4182C36.031 6.93472 34.3272 2.18647 31.2798 0.947486ZM24.0981 36.8623C22.9412 37.5084 21.5822 37.6917 20.2954 37.3752C19.0086 37.0588 17.8897 36.2661 17.1644 35.1571C16.439 34.0481 16.1612 32.7052 16.3871 31.3995C16.6129 30.0937 17.3255 28.9221 18.3811 28.1211C18.4922 28.0397 18.5862 27.9372 18.6577 27.8194C18.7293 27.7017 18.7769 27.571 18.7979 27.4349C18.8189 27.2987 18.8129 27.1597 18.7802 27.0259C18.7475 26.8921 18.6887 26.766 18.6073 26.6549C18.5259 26.5438 18.4234 26.4498 18.3056 26.3782C18.1879 26.3067 18.0572 26.2591 17.921 26.2381C17.7849 26.2171 17.6459 26.2231 17.5121 26.2558C17.3783 26.2885 17.2522 26.3473 17.1411 26.4287C16.1061 27.191 15.2925 28.2149 14.7837 29.3953C13.4559 30.2241 10.8785 31.0158 7.79983 27.8561C6.19738 26.2103 1.94036 21.8404 2.31171 19.1534C2.41401 18.4059 2.89442 17.7954 3.778 17.2853C5.71674 16.1659 9.44597 16.076 13.2783 17.0545C17.1887 18.0502 20.3223 19.8937 21.459 21.8625L26.0067 29.7394C26.6982 30.9371 26.8855 32.3603 26.5276 33.6961C26.1697 35.0319 25.2958 36.1708 24.0981 36.8623ZM35.286 11.9849C36.4846 16.2301 34.5169 18.0605 33.137 18.799C31.8603 18.6486 30.5666 18.8413 29.3891 19.3573C29.2628 19.4123 29.1485 19.4917 29.0528 19.5909C28.9571 19.6901 28.8819 19.8071 28.8315 19.9354C28.7811 20.0637 28.7564 20.2006 28.7589 20.3384C28.7613 20.4762 28.791 20.6122 28.846 20.7386C28.901 20.8649 28.9804 20.9792 29.0796 21.0749C29.1788 21.1706 29.2959 21.2458 29.4241 21.2962C29.5524 21.3467 29.6894 21.3713 29.8272 21.3689C29.965 21.3664 30.1009 21.3368 30.2273 21.2817C31.1518 20.8739 32.1747 20.7424 33.1723 20.9032C34.1699 21.064 35.0996 21.5102 35.8492 22.1879C36.5988 22.8655 37.1361 23.7457 37.3964 24.7221C37.6566 25.6985 37.6286 26.7294 37.3157 27.6902C37.0029 28.6511 36.4186 29.5008 35.6333 30.1368C34.8481 30.7728 33.8955 31.1678 32.8906 31.2742C31.8857 31.3807 30.8715 31.1939 29.9705 30.7365C29.0695 30.2791 28.3201 29.5706 27.813 28.6966L23.2653 20.8197C22.1285 18.8508 22.1003 15.2145 23.1917 11.331C24.2635 7.52112 26.206 4.33646 28.1522 3.21278C29.0358 2.70265 29.8017 2.5936 30.5023 2.87549C33.0075 3.90173 34.6635 9.77339 35.2875 11.984L35.286 11.9849Z" fill="#F08700"/>
</svg>
